<?xml version="1.0" ?>
<svg id="Layer_1_1_" style="enable-background:new 0 0 64 64;" version="1.1" viewBox="0 0 64 64" xml:space="preserve"
    xmlns="http://www.w3.org/2000/svg"
    xmlns:xlink="http://www.w3.org/1999/xlink">
    <g>
        <g>
            <path d="M48,21v-6l-3.544-0.709c-0.258-0.868-0.598-1.7-1.022-2.482l2.001-3.002l-4.243-4.243l-3.002,2.001    c-0.781-0.424-1.614-0.764-2.482-1.022L35,2h-6l-0.709,3.544c-0.868,0.258-1.7,0.598-2.482,1.022l-3.002-2.001l-4.243,4.243    l2.001,3.002c-0.424,0.781-0.764,1.614-1.022,2.482L16,15v6l3.544,0.709c0.258,0.868,0.598,1.7,1.022,2.482l-2.001,3.002    l-1.368,1.938C20.68,30.27,26.013,31,32,31s11.32-0.73,14.803-1.869l-1.368-1.938l-2.001-3.002    c0.424-0.781,0.764-1.614,1.022-2.482L48,21z M32,26c-4.418,0-8-3.582-8-8s3.582-8,8-8s8,3.582,8,8S36.418,26,32,26z" style="fill:#FFCB57;"/>
        </g>
        <g>
            <path d="M23,48c-3.86,0-7-3.14-7-7s3.14-7,7-7s7,3.14,7,7S26.86,48,23,48z M23,36c-2.757,0-5,2.243-5,5    s2.243,5,5,5s5-2.243,5-5S25.757,36,23,36z" style="fill:#E56565;"/>
        </g>
        <g>
            <path d="M41,48c-3.86,0-7-3.14-7-7s3.14-7,7-7s7,3.14,7,7S44.86,48,41,48z M41,36c-2.757,0-5,2.243-5,5    s2.243,5,5,5s5-2.243,5-5S43.757,36,41,36z" style="fill:#E56565;"/>
        </g>
        <g>
            <rect height="2" style="fill:#FFF;" width="2" x="31" y="5"/>
            <rect height="2" style="fill:#FFF;" transform="matrix(0.7071 -0.7071 0.7071 0.7071 0.1594 19.4141)" width="2" x="22.515" y="8.515"/>
            <rect height="2" style="fill:#FFF;" width="2" x="19" y="17"/>
            <rect height="2" style="fill:#FFF;" transform="matrix(0.7071 -0.7071 0.7071 0.7071 -11.8407 24.3847)" width="2" x="22.515" y="25.485"/>
            <rect height="2" style="fill:#FFF;" transform="matrix(0.7071 -0.7071 0.7071 0.7071 -6.8701 36.3848)" width="2" x="39.485" y="25.485"/>
            <rect height="2" style="fill:#FFF;" width="2" x="43" y="17"/>
            <rect height="2" style="fill:#FFF;" transform="matrix(0.7071 -0.7071 0.7071 0.7071 5.13 31.4142)" width="2" x="39.485" y="8.515"/>
            <path d="M32,27c4.962,0,9-4.038,9-9s-4.038-9-9-9s-9,4.038-9,9S27.038,27,32,27z M32,11c3.86,0,7,3.14,7,7    s-3.14,7-7,7s-7-3.14-7-7S28.14,11,32,11z" style="fill:#FFF;"/>
            <path d="M19.409,24.124l-1.676,2.514l1.664,1.109l2.336-3.504l-0.288-0.53    c-0.384-0.707-0.701-1.477-0.943-2.29l-0.172-0.577L17,20.18v-4.36l3.331-0.667l0.172-0.577c0.242-0.813,0.559-1.583,0.943-2.29    l0.288-0.53l-1.881-2.822l3.083-3.083l2.822,1.881l0.53-0.288c0.707-0.384,1.477-0.701,2.29-0.943l0.577-0.172L29.82,3h4.36    l0.667,3.331l0.577,0.172c0.813,0.242,1.583,0.559,2.29,0.943l0.53,0.288l2.822-1.881l3.663,3.663l1.414-1.414L41.32,3.278    l-3.196,2.13c-0.496-0.24-1.014-0.454-1.55-0.637L35.82,1h-7.64l-0.754,3.771c-0.536,0.184-1.054,0.397-1.55,0.637l-3.196-2.13    L17.278,8.68l2.13,3.196c-0.24,0.496-0.454,1.014-0.637,1.55L15,14.18v7.64l3.771,0.754C18.955,23.11,19.168,23.628,19.409,24.124    z" style="fill:#FFF;"/>
            <path d="M49,21.82v-7.64l-3.771-0.754c-0.252-0.734-0.559-1.437-0.916-2.093l-1.758,0.954    c0.384,0.707,0.701,1.477,0.943,2.29l0.172,0.577L47,15.82v4.36l-3.331,0.667l-0.172,0.577c-0.242,0.813-0.559,1.583-0.943,2.29    l-0.288,0.53l2.336,3.504l1.664-1.109l-1.676-2.514c0.24-0.496,0.454-1.014,0.637-1.55L49,21.82z" style="fill:#FFF;"/>
            <path d="M32,32c9.939,0,20-2.061,20-6c0-1.174-0.852-2.219-2.533-3.107l-0.935,1.769    C49.616,25.233,50,25.74,50,26c0,1.357-6.354,4-18,4s-18-2.643-18-4c0-0.26,0.384-0.767,1.467-1.339l-0.935-1.769    C12.852,23.781,12,24.826,12,26C12,29.939,22.061,32,32,32z" style="fill:#FFF;"/>
            <path d="M20,41c0,1.654,1.346,3,3,3s3-1.346,3-3s-1.346-3-3-3S20,39.346,20,41z M24,41c0,0.551-0.449,1-1,1    s-1-0.449-1-1s0.449-1,1-1S24,40.449,24,41z" style="fill:#FFF;"/>
            <path d="M38,41c0,1.654,1.346,3,3,3s3-1.346,3-3s-1.346-3-3-3S38,39.346,38,41z M42,41c0,0.551-0.449,1-1,1    s-1-0.449-1-1s0.449-1,1-1S42,40.449,42,41z" style="fill:#FFF;"/>
            <path d="M61,18c0-1.654-1.346-3-3-3s-3,1.346-3,3c0,1.302,0.839,2.402,2,2.816v12.911    c-1.259-1.43-3.016-2.408-5-2.657V30h-2v14.201c0,3.472-1.352,6.737-3.808,9.192l-6.142,6.142C39.106,60.48,37.85,61,36.515,61    h-9.029c-1.335,0-2.591-0.52-3.536-1.464l-6.142-6.142C15.352,50.938,14,47.673,14,44.201V30h-2v1.069    c-1.984,0.249-3.741,1.226-5,2.657V20.816C8.161,20.402,9,19.302,9,18c0-1.654-1.346-3-3-3s-3,1.346-3,3    c0,1.302,0.839,2.402,2,2.816V39c0,4.161,3.195,7.588,7.26,7.963c0.547,2.954,1.963,5.675,4.133,7.845l6.142,6.142    c1.322,1.322,3.08,2.05,4.95,2.05h9.029c1.87,0,3.627-0.728,4.95-2.05l6.142-6.142c2.171-2.17,3.586-4.891,4.133-7.845    C55.805,46.588,59,43.161,59,39V20.816C60.161,20.402,61,19.302,61,18z M6,17c0.551,0,1,0.449,1,1s-0.449,1-1,1s-1-0.449-1-1    S5.449,17,6,17z M7,39c0-2.967,2.167-5.431,5-5.91V38H9v2h3v4.201c0,0.24,0.024,0.476,0.035,0.714C9.185,44.451,7,41.979,7,39z     M51.965,44.915C51.976,44.677,52,44.441,52,44.201V40h3v-2h-3v-4.91c2.833,0.478,5,2.942,5,5.91    C57,41.979,54.815,44.451,51.965,44.915z M58,19c-0.551,0-1-0.449-1-1s0.449-1,1-1s1,0.449,1,1S58.551,19,58,19z" style="fill:#FFF;"/>
        </g>
    </g>
</svg>